<?xml version="1.0" encoding="UTF-8" standalone="no"?>
<!-- Creator: http://commons.wikimedia.org/wiki/User:ParaDox 2006-07-15 12'08 -->

<svg
   xmlns:dc="http://purl.org/dc/elements/1.1/"
   xmlns:cc="http://creativecommons.org/ns#"
   xmlns:rdf="http://www.w3.org/1999/02/22-rdf-syntax-ns#"
   xmlns:svg="http://www.w3.org/2000/svg"
   xmlns="http://www.w3.org/2000/svg"
   xmlns:xlink="http://www.w3.org/1999/xlink"
   xmlns:sodipodi="http://sodipodi.sourceforge.net/DTD/sodipodi-0.dtd"
   xmlns:inkscape="http://www.inkscape.org/namespaces/inkscape"
   version="1.0"
   width="480"
   height="560"
   viewBox="0 0 480 560"
   id="svg1365"
   inkscape:version="0.48.2 r9819"
   sodipodi:docname="A_TransGender-Symbol_Plain3.svg">
  <metadata
     id="metadata3043">
    <rdf:RDF>
      <cc:Work
         rdf:about="">
        <dc:format>image/svg+xml</dc:format>
        <dc:type
           rdf:resource="http://purl.org/dc/dcmitype/StillImage" />
        <dc:title></dc:title>
      </cc:Work>
    </rdf:RDF>
  </metadata>
  <sodipodi:namedview
     pagecolor="#ffffff"
     bordercolor="#666666"
     borderopacity="1"
     objecttolerance="10"
     gridtolerance="10"
     guidetolerance="10"
     inkscape:pageopacity="0"
     inkscape:pageshadow="2"
     inkscape:window-width="1276"
     inkscape:window-height="756"
     id="namedview3041"
     showgrid="false"
     inkscape:zoom="0.9"
     inkscape:cx="109.33986"
     inkscape:cy="280"
     inkscape:window-x="4"
     inkscape:window-y="0"
     inkscape:window-maximized="1"
     inkscape:current-layer="svg1365" />
  <defs
     id="defs4">
    <linearGradient
       x1="67.534569"
       y1="422.77271"
       x2="412.71317"
       y2="79.813492"
       id="id0"
       gradientUnits="userSpaceOnUse">
      <stop
         style="stop-color:#f6b;stop-opacity:1"
         offset="0"
         id="stop9" />
      <stop
         style="stop-color:#0c30ad;stop-opacity:1"
         offset="1"
         id="stop11" />
    </linearGradient>
    <linearGradient
       x1="67.534569"
       y1="422.77271"
       x2="412.71317"
       y2="79.813492"
       id="linearGradient1886"
       xlink:href="#id0"
       gradientUnits="userSpaceOnUse"
       gradientTransform="matrix(1.417322,0,0,1.417322,-100.1568,-116.8503)" />
  </defs>
  <path
     d="M 216.0625,400.78125 216,456 l -61.34375,0 0,48 61.34375,0 0,56 48,0 0,-56 61.34375,0 0,-48 -61.34375,0 0,-55.28125 0,-0.0312 m 98.84375,-251.4375 74.5,-74.59375 0,69.34375 L 480,144 480,0 336,0 l 0,42.65625 69.34375,0 -75.40625,75.4375 m -179.8125,0 -11.46875,-11.4375 32,-32 -32,-32 -32,32 -32,-32 32,0 L 106.65625,0 0,0 l 0,106.65625 42.65625,0 0,-32 32,32 -32,32 32.03125,31.96875 31.96875,-31.96875 10.6875,10.53125"
     style="fill:#000000;fill-opacity:1"
     id="path1878"
     inkscape:connector-curvature="0"
     sodipodi:nodetypes="ccccccccccccccccccccccccccccccccccccccc" />
  <g
     inkscape:groupmode="layer"
     id="layer1"
     inkscape:label="Layer"
     style="display:inline">
    <path
       inkscape:connector-curvature="0"
       d="m 103.26064,323.51056 c 38.3415,68.06785 120.01166,96.35339 191.44224,70.2376 l 76.64945,139.55457 42.06272,-23.12418 -76.73432,-139.57923 -0.0151,-0.0273 c 60.034,-46.23901 78.13086,-126.27111 41.64693,-199.34639 C 343.98969,102.47884 251.5092,61.482981 165.73364,108.72523 86.332117,152.45687 62.058224,250.3637 103.26064,323.51056 z m 83.625,-175.5695 c 54.05344,-29.71614 123.54353,-10.48391 152.10275,44.18994 28.23529,54.05372 9.12303,121.64613 -43.44942,150.62176 -54.02146,29.77426 -123.127,11.34478 -152.84328,-42.70893 -29.71627,-54.05371 -9.86351,-122.38663 44.18995,-152.10277 z"
       style="fill:#999999;fill-opacity:1"
       id="path1878-4"
       sodipodi:nodetypes="scccccssssssss" />
  </g>
</svg>
